Coordinates
version=1
nRows=17
nColumns=38
inDegrees=no

Units are S.I. units (second, meters, Newtons, ...)
If the header above contains a line with 'inDegrees', this indicates whether rotational values are in degrees (yes) or radians (no).

endheader
time	pelvis_tilt	pelvis_list	pelvis_rotation	pelvis_tx	pelvis_ty	pelvis_tz	hip_flexion_r	hip_adduction_r	hip_rotation_r	knee_angle_r	ankle_angle_r	subtalar_angle_r	mtp_angle_r	hip_flexion_l	hip_adduction_l	hip_rotation_l	knee_angle_l	ankle_angle_l	subtalar_angle_l	mtp_angle_l	lumbar_extension	lumbar_bending	lumbar_rotation	arm_flex_r	arm_add_r	arm_rot_r	elbow_flex_r	pro_sup_r	wrist_flex_r	wrist_dev_r	arm_flex_l	arm_add_l	arm_rot_l	elbow_flex_l	pro_sup_l	wrist_flex_l	wrist_dev_l
5.99	1.5619	1.50277	-0.0985632	0.598056	1.80885	1.04402	0.324138	-0.0138551	0.0601195	1.09111	-0.261236	0	0	0.0620081	-0.0765025	-0.207904	0.0922532	-0.499224	0	0	-0.214887	-0.0673083	0.0281752	0.917511	-0.210143	0.822009	0.918806	1.5708	0	0	0.850088	-0.329761	0.79421	1.06829	1.5708	0	0
6	1.50731	1.50264	-0.0442775	0.598614	1.81112	1.04399	0.329178	-0.0121438	0.0628414	1.0628	-0.242462	0	0	0.0621081	-0.0767127	-0.207011	0.0891361	-0.499288	0	0	-0.213439	-0.0666042	0.0297338	0.92091	-0.209618	0.822268	0.915637	1.5708	0	0	0.857457	-0.328559	0.80123	1.06254	1.5708	0	0
6.01	1.45433	1.50273	0.00867211	0.599177	1.81339	1.04389	0.333962	-0.0118736	0.0626732	1.03333	-0.232016	0	0	0.0624014	-0.0765957	-0.206978	0.0867915	-0.49903	0	0	-0.212204	-0.0656455	0.0294219	0.925434	-0.207466	0.824801	0.911527	1.5708	0	0	0.861694	-0.32852	0.803316	1.05928	1.5708	0	0
6.02	1.39847	1.50291	0.0645582	0.599796	1.81569	1.04376	0.338165	-0.0118649	0.0621463	1.00188	-0.222776	0	0	0.0630039	-0.0762475	-0.207278	0.0848337	-0.498057	0	0	-0.210584	-0.064966	0.0292094	0.929416	-0.205446	0.826928	0.907886	1.5708	0	0	0.865441	-0.328494	0.805359	1.05631	1.5708	0	0
6.03	1.35302	1.50316	0.110457	0.600472	1.81801	1.04365	0.341269	-0.0126521	0.0591258	0.96959	-0.212577	0	0	0.0631914	-0.075671	-0.207668	0.0829102	-0.497733	0	0	-0.209077	-0.0649501	0.0295232	0.932491	-0.204169	0.828063	0.904532	1.5708	0	0	0.870325	-0.327781	0.809646	1.05191	1.5708	0	0
6.04	1.30576	1.50329	0.158193	0.601202	1.82035	1.04353	0.343963	-0.0133843	0.0556881	0.936361	-0.204454	0	0	0.063476	-0.0752385	-0.207696	0.0810672	-0.49748	0	0	-0.207248	-0.0646362	0.0294292	0.935758	-0.202548	0.829789	0.900943	1.5708	0	0	0.874598	-0.327453	0.812966	1.04778	1.5708	0	0
6.05	1.26006	1.50323	0.204571	0.601967	1.82273	1.0434	0.345813	-0.0138929	0.051133	0.902494	-0.197685	0	0	0.0635165	-0.0750862	-0.207183	0.079304	-0.497199	0	0	-0.205419	-0.0640334	0.0288768	0.939242	-0.200777	0.832196	0.897204	1.5708	0	0	0.878279	-0.327406	0.815515	1.04397	1.5708	0	0
6.06	1.21697	1.50317	0.248419	0.602771	1.82515	1.04328	0.346916	-0.0143269	0.0456692	0.868422	-0.192837	0	0	0.0633689	-0.0748713	-0.206814	0.0777696	-0.496841	0	0	-0.203642	-0.0631983	0.0281034	0.942843	-0.198759	0.835462	0.893128	1.5708	0	0	0.881451	-0.327589	0.81794	1.04019	1.5708	0	0
6.07	1.1796	1.50318	0.286647	0.603606	1.82761	1.04318	0.346972	-0.0147974	0.0393714	0.834819	-0.189412	0	0	0.06307	-0.0743916	-0.206843	0.0768151	-0.496116	0	0	-0.202093	-0.0621009	0.0272343	0.946315	-0.196637	0.839151	0.888971	1.5708	0	0	0.884476	-0.327946	0.820867	1.0363	1.5708	0	0
6.08	1.14721	1.50325	0.320069	0.604481	1.83012	1.04311	0.346056	-0.0152423	0.0324043	0.802218	-0.187022	0	0	0.0626405	-0.0739455	-0.206979	0.0764526	-0.494287	0	0	-0.200798	-0.0608717	0.0262924	0.949503	-0.194589	0.842522	0.885225	1.5708	0	0	0.887079	-0.328495	0.823384	1.03283	1.5708	0	0
6.09	1.11974	1.50348	0.348843	0.605403	1.83268	1.04306	0.344335	-0.0159377	0.0249591	0.770777	-0.185231	0	0	0.0620228	-0.073635	-0.2065	0.0767585	-0.491287	0	0	-0.19965	-0.0595552	0.0252231	0.952529	-0.192401	0.845503	0.881614	1.5708	0	0	0.889638	-0.328979	0.825898	1.02919	1.5708	0	0
6.1	1.0994	1.50385	0.370683	0.606374	1.83524	1.04304	0.34153	-0.0165028	0.0176123	0.740963	-0.183719	0	0	0.0611588	-0.0736083	-0.206096	0.0777756	-0.488481	0	0	-0.198807	-0.0580286	0.0242174	0.955487	-0.190151	0.848391	0.877784	1.5708	0	0	0.892375	-0.329257	0.828762	1.02507	1.5708	0	0
6.11	1.08841	1.50443	0.383493	0.607405	1.8378	1.04303	0.337735	-0.016728	0.0105571	0.713504	-0.182402	0	0	0.060029	-0.0738718	-0.205584	0.0797041	-0.485995	0	0	-0.198305	-0.0566843	0.0236699	0.958165	-0.188564	0.851476	0.873964	1.5708	0	0	0.895719	-0.328665	0.832583	1.01965	1.5708	0	0
6.12	1.08534	1.50524	0.388764	0.608489	1.84042	1.04306	0.333136	-0.0168078	0.00354869	0.688558	-0.180959	0	0	0.0584882	-0.074235	-0.204589	0.0821762	-0.483367	0	0	-0.198299	-0.0549751	0.0224512	0.961455	-0.186624	0.856493	0.869472	1.5708	0	0	0.897963	-0.328505	0.834869	1.01478	1.5708	0	0
6.13	1.09929	1.50638	0.377677	0.60961	1.8431	1.04317	0.327308	-0.0171698	-0.00559144	0.666359	-0.179451	0	0	0.0560504	-0.0748425	-0.203346	0.0854924	-0.479755	0	0	-0.199238	-0.0527126	0.0201973	0.965448	-0.183749	0.863347	0.863667	1.5708	0	0	0.899312	-0.328912	0.836258	1.01008	1.5708	0	0
6.14	1.10943	1.50764	0.370376	0.610829	1.84579	1.04324	0.321782	-0.0173655	-0.0130818	0.647488	-0.178085	0	0	0.05401	-0.0753829	-0.20223	0.0890185	-0.476669	0	0	-0.199788	-0.0507379	0.0180465	0.968721	-0.180663	0.86915	0.858299	1.5708	0	0	0.899846	-0.329337	0.836618	1.00579	1.5708	0	0
6.15	1.12275	1.50908	0.360041	0.612082	1.84848	1.04331	0.315552	-0.0172574	-0.0188015	0.630917	-0.177123	0	0	0.0519202	-0.075868	-0.20112	0.0927851	-0.473454	0	0	-0.20051	-0.0484866	0.0156041	0.972139	-0.177287	0.874961	0.85317	1.5708	0	0	0.899857	-0.330045	0.835967	1.00209	1.5708	0	0
